# xmcd CD database file generated by Grip 2.95
# 
# Track frame offsets:
#       150
#       26489
#       49089
#       69959
#       93111
#       114004
#       137898
#       154473
#       168545
#       185384
# 
# Disc length: 2671 seconds
# 
# Revision: 3
# Processed by: cddbd v1.4b41PL1 Copyright (c) Steve Scherf et al.
# Submitted via: Grip 2.95
# 
DISCID=7b0a6d0a
DTITLE=Frankie Starr - Boogie 2000
DYEAR=1900
DGENRE=
TTITLE0=Dead Presidents
TTITLE1=Boogie 2000
TTITLE2=Priest Of Labor
TTITLE3=The Blues Are Good For You
TTITLE4=Precious Time
TTITLE5=The Nature Of Love
TTITLE6=Once I Loved A Woman
TTITLE7=True Blue
TTITLE8=Doreen
TTITLE9=Mean Old Frisco
EXTD=
EXTT0=
EXTT1=
EXTT2=
EXTT3=
EXTT4=
EXTT5=
EXTT6=
EXTT7=
EXTT8=
EXTT9=
PLAYORDER=
